<svg width="27" height="38" viewBox="0 0 27 38" fill="none" xmlns="http://www.w3.org/2000/svg">
<path d="M25.4513 12.4269H21.7166C21.7166 11.6345 21.4018 10.8745 20.8415 10.3142C20.2811 9.75384 19.5212 9.43905 18.7287 9.43905C17.9363 9.43905 17.1764 9.75384 16.616 10.3142C16.0557 10.8745 15.7409 11.6345 15.7409 12.4269H14.247V10.0486C14.2469 9.92915 14.2182 9.8115 14.1632 9.70548C14.1082 9.59946 14.0287 9.50817 13.9311 9.43925C13.8336 9.37033 13.721 9.3258 13.6027 9.30939C13.4844 9.29298 13.3639 9.30517 13.2513 9.34493C13.0254 9.42917 12.7824 9.45746 12.5431 9.42738C12.3039 9.39731 12.0754 9.30975 11.8774 9.17221C11.6793 9.03466 11.5174 8.85121 11.4057 8.63753C11.2939 8.42385 11.2355 8.18629 11.2355 7.94514C11.2355 7.70399 11.2939 7.46643 11.4057 7.25275C11.5174 7.03907 11.6793 6.85562 11.8774 6.71807C12.0754 6.58053 12.3039 6.49297 12.5431 6.4629C12.7824 6.43282 13.0254 6.46111 13.2513 6.54534C13.3639 6.58511 13.4844 6.5973 13.6027 6.58089C13.721 6.56448 13.8336 6.51995 13.9311 6.45103C14.0287 6.38211 14.1082 6.29082 14.1632 6.1848C14.2182 6.07878 14.2469 5.96113 14.247 5.84171V1.22254C14.247 1.02444 14.1683 0.834446 14.0282 0.694364C13.8882 0.554283 13.6982 0.475586 13.5001 0.475586C10.5988 0.478199 7.786 1.4742 5.5296 3.29785C3.2732 5.12151 1.70931 7.66283 1.09817 10.499C0.487036 13.3351 0.865502 16.2949 2.17059 18.886C3.47569 21.4771 5.6287 23.5432 8.27137 24.7404V25.8721H7.52441C6.9301 25.8721 6.36012 26.1082 5.93988 26.5284C5.51964 26.9486 5.28355 27.5186 5.28355 28.1129V29.6068C5.28355 30.2012 5.51964 30.7711 5.93988 31.1914C6.36012 31.6116 6.9301 31.8477 7.52441 31.8477H8.27137V34.0886C8.27255 35.0787 8.66642 36.028 9.36657 36.7282C10.0667 37.4283 11.016 37.8222 12.0061 37.8234H14.994C15.9841 37.8222 16.9334 37.4283 17.6335 36.7282C18.3337 36.028 18.7276 35.0787 18.7287 34.0886V31.8477H19.4757C20.07 31.8477 20.64 31.6116 21.0602 31.1914C21.4805 30.7711 21.7166 30.2012 21.7166 29.6068V28.1129C21.7166 27.5186 21.4805 26.9486 21.0602 26.5284C20.64 26.1082 20.07 25.8721 19.4757 25.8721H18.7287V24.7404C20.9585 23.7406 22.8506 22.116 24.1763 20.0632C25.502 18.0104 26.2043 15.6174 26.1983 13.1738C26.1983 12.9757 26.1196 12.7857 25.9795 12.6456C25.8394 12.5056 25.6494 12.4269 25.4513 12.4269ZM12.7531 1.99415V4.95732C11.9607 4.95732 11.2007 5.27211 10.6404 5.83243C10.0801 6.39276 9.76528 7.15272 9.76528 7.94514C9.76528 8.73756 10.0801 9.49752 10.6404 10.0578C11.2007 10.6182 11.9607 10.933 12.7531 10.933V12.4269H10.3748C10.2553 12.4269 10.1375 12.4557 10.0314 12.5107C9.92535 12.5657 9.83399 12.6453 9.76506 12.743C9.69613 12.8406 9.65162 12.9533 9.63528 13.0717C9.61894 13.1901 9.63125 13.3107 9.67116 13.4233C9.7554 13.6493 9.78369 13.8923 9.75361 14.1315C9.72353 14.3708 9.63598 14.5992 9.49844 14.7973C9.36089 14.9953 9.17744 15.1572 8.96376 15.2689C8.75008 15.3807 8.51251 15.4391 8.27137 15.4391C8.03022 15.4391 7.79266 15.3807 7.57898 15.2689C7.3653 15.1572 7.18185 14.9953 7.0443 14.7973C6.90675 14.5992 6.8192 14.3708 6.78912 14.1315C6.75905 13.8923 6.78733 13.6493 6.87157 13.4233C6.91149 13.3107 6.92379 13.1901 6.90746 13.0717C6.89112 12.9533 6.84661 12.8406 6.77768 12.743C6.70874 12.6453 6.61739 12.5657 6.51129 12.5107C6.40519 12.4557 6.28745 12.4269 6.16794 12.4269H2.32037C2.50476 9.72069 3.66312 7.17289 5.58112 5.25489C7.49912 3.3369 10.0469 2.17854 12.7531 1.99415ZM9.29843 23.5565C7.34507 22.7722 5.65352 21.4511 4.41924 19.746C3.18496 18.0409 2.45835 16.0214 2.32336 13.9208H5.28355C5.28355 14.7132 5.59833 15.4732 6.15866 16.0335C6.71898 16.5938 7.47895 16.9086 8.27137 16.9086C9.06379 16.9086 9.82375 16.5938 10.3841 16.0335C10.9444 15.4732 11.2592 14.7132 11.2592 13.9208H12.7531V16.2991C12.7532 16.4185 12.782 16.5362 12.8369 16.6422C12.8919 16.7482 12.9715 16.8395 13.069 16.9084C13.1665 16.9773 13.2791 17.0219 13.3974 17.0383C13.5157 17.0547 13.6362 17.0425 13.7488 17.0027C13.9747 16.9185 14.2177 16.8902 14.457 16.9203C14.6963 16.9503 14.9247 17.0379 15.1228 17.1754C15.3208 17.313 15.4827 17.4964 15.5944 17.7101C15.7062 17.9238 15.7646 18.1614 15.7646 18.4025C15.7646 18.6437 15.7062 18.8812 15.5944 19.0949C15.4827 19.3086 15.3208 19.492 15.1228 19.6296C14.9247 19.7671 14.6963 19.8547 14.457 19.8848C14.2177 19.9148 13.9747 19.8865 13.7488 19.8023C13.6362 19.7625 13.5157 19.7504 13.3974 19.7668C13.2791 19.7832 13.1665 19.8277 13.069 19.8966C12.9715 19.9655 12.8919 20.0568 12.8369 20.1629C12.782 20.2689 12.7532 20.3865 12.7531 20.5059V25.8721H9.76528V24.2482C9.76513 24.0995 9.72062 23.9543 9.63745 23.8311C9.55429 23.7079 9.43624 23.6123 9.29843 23.5565ZM17.2348 34.0886C17.2348 34.6829 16.9987 35.2529 16.5785 35.6731C16.1583 36.0934 15.5883 36.3294 14.994 36.3294H12.0061C11.4118 36.3294 10.8419 36.0934 10.4216 35.6731C10.0014 35.2529 9.76528 34.6829 9.76528 34.0886V31.8477H11.2592V34.0886C11.2592 34.2867 11.3379 34.4767 11.478 34.6168C11.618 34.7568 11.808 34.8355 12.0061 34.8355C12.2043 34.8355 12.3942 34.7568 12.5343 34.6168C12.6744 34.4767 12.7531 34.2867 12.7531 34.0886V31.8477H14.247V34.0886C14.247 34.2867 14.3257 34.4767 14.4658 34.6168C14.6059 34.7568 14.7959 34.8355 14.994 34.8355C15.1921 34.8355 15.3821 34.7568 15.5221 34.6168C15.6622 34.4767 15.7409 34.2867 15.7409 34.0886V31.8477H17.2348V34.0886ZM19.4757 27.366C19.6738 27.366 19.8638 27.4447 20.0039 27.5848C20.144 27.7248 20.2227 27.9148 20.2227 28.1129V29.6068C20.2227 29.805 20.144 29.9949 20.0039 30.135C19.8638 30.2751 19.6738 30.3538 19.4757 30.3538H7.52441C7.32631 30.3538 7.13632 30.2751 6.99623 30.135C6.85615 29.9949 6.77746 29.805 6.77746 29.6068V28.1129C6.77746 27.9148 6.85615 27.7248 6.99623 27.5848C7.13632 27.4447 7.32631 27.366 7.52441 27.366H19.4757ZM17.7017 23.5565C17.5638 23.6123 17.4456 23.708 17.3624 23.8314C17.2793 23.9548 17.2348 24.1001 17.2348 24.2489V25.8721H14.247V21.3903C15.0394 21.3903 15.7994 21.0755 16.3597 20.5152C16.92 19.9549 17.2348 19.1949 17.2348 18.4025C17.2348 17.6101 16.92 16.8501 16.3597 16.2898C15.7994 15.7295 15.0394 15.4147 14.247 15.4147V13.9208H16.6253C16.7448 13.9207 16.8626 13.892 16.9687 13.837C17.0748 13.782 17.1661 13.7023 17.2351 13.6047C17.304 13.5071 17.3485 13.3943 17.3648 13.276C17.3812 13.1576 17.3689 13.037 17.3289 12.9243C17.2447 12.6984 17.2164 12.4554 17.2465 12.2161C17.2766 11.9769 17.3641 11.7485 17.5017 11.5504C17.6392 11.3523 17.8227 11.1905 18.0364 11.0787C18.25 10.9669 18.4876 10.9086 18.7287 10.9086C18.9699 10.9086 19.2075 10.9669 19.4211 11.0787C19.6348 11.1905 19.8183 11.3523 19.9558 11.5504C20.0934 11.7485 20.1809 11.9769 20.211 12.2161C20.2411 12.4554 20.2128 12.6984 20.1285 12.9243C20.0886 13.037 20.0763 13.1576 20.0927 13.276C20.109 13.3943 20.1535 13.5071 20.2224 13.6047C20.2914 13.7023 20.3827 13.782 20.4888 13.837C20.5949 13.892 20.7127 13.9207 20.8322 13.9208H24.6797C24.5441 16.0216 23.817 18.0413 22.5822 19.7463C21.3474 21.4514 19.6554 22.7723 17.7017 23.5565Z" fill="white"/>
</svg>